<svg width="42" height="59" viewBox="0 0 42 59" fill="none" xmlns="http://www.w3.org/2000/svg">
<g clip-path="url(#clip0_1_2)">
<path d="M15.63 26.29C14.2851 26.29 12.9704 25.8912 11.8521 25.144C10.7339 24.3968 9.86228 23.3348 9.34761 22.0923C8.83293 20.8497 8.69827 19.4825 8.96065 18.1634C9.22303 16.8443 9.87067 15.6327 10.8217 14.6817C11.7727 13.7307 12.9843 13.083 14.3034 12.8207C15.6224 12.5583 16.9897 12.6929 18.2322 13.2076C19.4748 13.7223 20.5368 14.5939 21.284 15.7121C22.0312 16.8304 22.43 18.1451 22.43 19.49C22.4273 21.2927 21.7101 23.0207 20.4354 24.2954C19.1607 25.5701 17.4326 26.2874 15.63 26.29ZM15.63 15.69C14.8784 15.69 14.1437 15.9129 13.5188 16.3304C12.8939 16.748 12.4069 17.3414 12.1192 18.0358C11.8316 18.7302 11.7564 19.4942 11.903 20.2313C12.0496 20.9685 12.4115 21.6456 12.943 22.177C13.4744 22.7085 14.1515 23.0704 14.8886 23.217C15.6258 23.3636 16.3898 23.2884 17.0842 23.0007C17.7785 22.7131 18.372 22.2261 18.7896 21.6012C19.2071 20.9763 19.43 20.2416 19.43 19.49C19.4274 18.483 19.0261 17.518 18.3141 16.8059C17.602 16.0938 16.637 15.6926 15.63 15.69ZM26.56 26.28L26.48 24.79V23.29C27.4067 23.2346 28.2783 22.831 28.92 22.16C29.1985 21.8749 29.5788 21.7121 29.9773 21.7074C30.3758 21.7027 30.7599 21.8565 31.045 22.135C31.3301 22.4135 31.4929 22.7938 31.4976 23.1923C31.5023 23.5908 31.3485 23.9749 31.07 24.26C29.8795 25.4842 28.266 26.2069 26.56 26.28Z" fill="#59151D"/>
<path d="M23.33 25.42C23.0394 25.4195 22.755 25.3362 22.51 25.18C21.5187 24.5396 20.7112 23.6522 20.1668 22.6051C19.6223 21.558 19.3598 20.3872 19.405 19.2079C19.4502 18.0286 19.8015 16.8814 20.4244 15.879C21.0474 14.8767 21.9204 14.0537 22.9578 13.491C23.9952 12.9283 25.1612 12.6453 26.3411 12.6697C27.521 12.6942 28.6742 13.0254 29.6873 13.6306C30.7005 14.2358 31.5387 15.0943 32.1195 16.1217C32.7003 17.149 33.0038 18.3098 33 19.49C32.9955 20.1683 32.8911 20.8422 32.69 21.49C32.6302 21.6778 32.5341 21.852 32.407 22.0026C32.28 22.1532 32.1245 22.2773 31.9494 22.3679C31.7744 22.4584 31.5832 22.5136 31.3869 22.5303C31.1905 22.5469 30.9928 22.5247 30.805 22.465C30.6172 22.4052 30.443 22.3091 30.2924 22.182C30.1418 22.0549 30.0176 21.8995 29.9271 21.7244C29.8366 21.5494 29.7814 21.3582 29.7647 21.1619C29.7481 20.9655 29.7702 20.7678 29.83 20.58C29.9398 20.227 29.9971 19.8597 30 19.49C29.95 18.5146 29.5273 17.5956 28.8192 16.9229C28.1111 16.2502 27.1717 15.8751 26.195 15.8751C25.2183 15.8751 24.2789 16.2502 23.5708 16.9229C22.8627 17.5956 22.44 18.5146 22.39 19.49C22.3871 20.1204 22.5432 20.7413 22.8439 21.2953C23.1445 21.8494 23.58 22.3187 24.11 22.66C24.3824 22.836 24.5905 23.0955 24.703 23.3997C24.8155 23.7038 24.8264 24.0363 24.734 24.3472C24.6416 24.6581 24.451 24.9307 24.1907 25.1241C23.9303 25.3175 23.6143 25.4213 23.29 25.42H23.33Z" fill="#59151D"/>
<path d="M35.4 31.58L35.32 30.09V28.59C36.3278 28.5568 37.2812 28.1247 37.9704 27.3886C38.6596 26.6525 39.0281 25.6728 38.995 24.665C38.9618 23.6572 38.5297 22.7038 37.7936 22.0146C37.0575 21.3254 36.0778 20.9568 35.07 20.99C34.5664 20.9884 34.0676 21.0886 33.6037 21.2845C33.1397 21.4804 32.7201 21.768 32.37 22.13C31.9357 22.5572 31.6159 23.0868 31.44 23.67C31.1889 24.4629 31.2056 25.3164 31.4875 26.0989C31.7694 26.8814 32.3009 27.5494 33 28C33.3342 28.2175 33.5683 28.5588 33.6508 28.9489C33.7333 29.3389 33.6575 29.7458 33.44 30.08C33.2225 30.4142 32.8812 30.6483 32.4911 30.7308C32.101 30.8133 31.6942 30.7375 31.36 30.52C30.415 29.9022 29.6392 29.0582 29.1031 28.0645C28.567 27.0709 28.2875 25.9591 28.29 24.83C28.2894 24.1513 28.394 23.4767 28.6 22.83C29.0237 21.441 29.8797 20.2234 31.0434 19.3547C32.2072 18.4859 33.6178 18.0113 35.07 18C36.8385 18.0096 38.5337 18.7078 39.7959 19.9464C41.0582 21.1851 41.7883 22.8668 41.8312 24.6348C41.8741 26.4028 41.2266 28.118 40.0259 29.4165C38.8252 30.715 37.1659 31.4946 35.4 31.59V31.58Z" fill="#59151D"/>
<path d="M23.58 36C22.0719 36.0051 20.6062 35.5013 19.42 34.57C19.107 34.3234 18.9049 33.9625 18.858 33.5668C18.8111 33.1711 18.9233 32.773 19.17 32.46C19.4166 32.147 19.7775 31.9449 20.1732 31.898C20.5689 31.8511 20.967 31.9634 21.28 32.21C22.0168 32.7595 22.9259 33.0273 23.8429 32.9649C24.7599 32.9026 25.6244 32.5142 26.28 31.87C26.7029 31.4339 27.0209 30.9073 27.21 30.33C27.383 29.7604 27.4204 29.1582 27.3194 28.5715C27.2183 27.9848 26.9815 27.4299 26.6279 26.951C26.2743 26.4721 25.8137 26.0824 25.2828 25.8131C24.7518 25.5438 24.1653 25.4024 23.57 25.4H23.47C22.7895 25.4259 22.1279 25.631 21.552 25.9944C20.976 26.3579 20.5062 26.8669 20.19 27.47C20.1051 27.6543 19.9837 27.8196 19.8332 27.9556C19.6826 28.0917 19.506 28.1958 19.3141 28.2616C19.1221 28.3275 18.9188 28.3537 18.7164 28.3387C18.514 28.3236 18.3168 28.2677 18.1367 28.1743C17.9565 28.0808 17.7972 27.9518 17.6684 27.795C17.5396 27.6381 17.4439 27.4568 17.3872 27.262C17.3305 27.0671 17.3139 26.8628 17.3384 26.6614C17.363 26.4599 17.4281 26.2655 17.53 26.09C18.078 25.0297 18.8947 24.1318 19.8985 23.4861C20.9023 22.8403 22.0579 22.4692 23.25 22.41H23.57C25.3726 22.4126 27.1007 23.1299 28.3754 24.4046C29.6501 25.6793 30.3673 27.4073 30.37 29.21C30.3712 30.0997 30.195 30.9807 29.8516 31.8015C29.5081 32.6223 29.0045 33.3663 28.37 33.99C27.7442 34.6252 26.9986 35.13 26.1764 35.475C25.3542 35.82 24.4717 35.9985 23.58 36Z" fill="#59151D"/>
<path d="M28.5 39.56C28.2919 39.5608 28.0859 39.5186 27.8948 39.436C27.7038 39.3534 27.532 39.2322 27.39 39.08C26.2491 37.8317 25.6176 36.2011 25.62 34.51C25.6194 33.8313 25.724 33.1566 25.93 32.51C25.9839 32.316 26.0762 32.1349 26.2015 31.9774C26.3268 31.8199 26.4826 31.6893 26.6594 31.5932C26.8363 31.4971 27.0307 31.4377 27.231 31.4183C27.4314 31.3989 27.6336 31.4201 27.8256 31.4805C28.0176 31.5409 28.1954 31.6394 28.3486 31.77C28.5017 31.9006 28.627 32.0607 28.717 32.2407C28.807 32.4207 28.8599 32.617 28.8724 32.8179C28.8849 33.0188 28.8569 33.2202 28.79 33.41C28.6729 33.775 28.6155 34.1566 28.62 34.54C28.6224 35.4822 28.9794 36.389 29.62 37.08C29.8198 37.2928 29.9528 37.5595 30.0023 37.8472C30.0518 38.1349 30.0158 38.4308 29.8986 38.6981C29.7815 38.9655 29.5883 39.1925 29.3432 39.3511C29.0982 39.5096 28.8119 39.5927 28.52 39.59L28.5 39.56Z" fill="#59151D"/>
<path d="M32.81 41.29C32.4122 41.3046 32.0249 41.1605 31.7332 40.8895C31.4416 40.6185 31.2696 40.2428 31.255 39.845C31.2404 39.4472 31.3845 39.0598 31.6555 38.7682C31.9264 38.4766 32.3022 38.3046 32.7 38.29C33.4741 38.2354 34.213 37.9451 34.8172 37.4581C35.4215 36.9711 35.8621 36.3107 36.0799 35.5659C36.2977 34.821 36.2822 34.0273 36.0355 33.2915C35.7888 32.5557 35.3228 31.913 34.7 31.45L34.5 31.32C33.8915 30.9105 33.1735 30.6944 32.44 30.7H32.33C31.354 30.7318 30.4272 31.1361 29.74 31.83C29.4583 32.0982 29.0834 32.2465 28.6944 32.2436C28.3054 32.2406 27.9328 32.0867 27.6551 31.8142C27.3775 31.5418 27.2165 31.1721 27.2062 30.7832C27.196 30.3944 27.3371 30.0167 27.6 29.73C28.7971 28.5181 30.4082 27.8037 32.11 27.73H32.44C33.605 27.7247 34.7506 28.0283 35.76 28.61L36.14 28.85C37.0874 29.4637 37.8657 30.3052 38.4038 31.2975C38.9419 32.2898 39.2225 33.4012 39.22 34.53C39.2147 36.2469 38.5621 37.8986 37.3924 39.1554C36.2228 40.4122 34.6221 41.1816 32.91 41.31L32.81 41.29ZM21.82 46.61C20.5742 46.6048 19.3534 46.259 18.29 45.61C17.9492 45.4031 17.7045 45.0693 17.6098 44.6821C17.5151 44.2948 17.5781 43.8858 17.785 43.545C17.9919 43.2042 18.3257 42.9595 18.7129 42.8648C19.1002 42.7701 19.5092 42.8331 19.85 43.04C20.4258 43.3928 21.0853 43.5853 21.7604 43.5977C22.4355 43.6101 23.1017 43.4419 23.69 43.1105C24.2784 42.7792 24.7675 42.2966 25.1068 41.7128C25.4461 41.129 25.6233 40.4652 25.62 39.79C25.619 39.4525 25.5754 39.1165 25.49 38.79C25.2652 37.9606 24.766 37.232 24.0738 36.7228C23.3816 36.2137 22.5373 35.9542 21.6786 35.9867C20.82 36.0192 19.9977 36.3418 19.3459 36.9017C18.6942 37.4617 18.2515 38.226 18.09 39.07C18.0526 39.2637 17.9774 39.4481 17.8687 39.6128C17.76 39.7774 17.6199 39.919 17.4565 40.0295C17.293 40.14 17.1094 40.2172 16.9162 40.2568C16.7229 40.2963 16.5237 40.2974 16.33 40.26C16.1363 40.2226 15.9519 40.1473 15.7872 40.0386C15.6226 39.9299 15.481 39.7899 15.3705 39.6264C15.26 39.463 15.1828 39.2794 15.1432 39.0861C15.1037 38.8929 15.1026 38.6937 15.14 38.5C15.4299 36.9908 16.2226 35.6243 17.3887 34.6232C18.5548 33.6222 20.0256 33.0457 21.5613 32.9877C23.097 32.9297 24.6071 33.3937 25.8454 34.3039C27.0836 35.2141 27.9771 36.5169 28.38 38C28.5429 38.5792 28.6237 39.1783 28.62 39.78C28.624 41.1454 28.2156 42.4802 27.4484 43.6096C26.6812 44.7391 25.5908 45.6106 24.32 46.11C23.5253 46.4316 22.6773 46.6012 21.82 46.61ZM7.68 43.08C5.87653 43.08 4.14693 42.3636 2.87168 41.0883C1.59643 39.8131 0.880005 38.0835 0.880005 36.28C0.880005 34.4765 1.59643 32.7469 2.87168 31.4717C4.14693 30.1964 5.87653 29.48 7.68 29.48C8.91357 29.4832 10.1219 29.8294 11.17 30.48C12.0434 30.9961 12.7886 31.7032 13.3497 32.5484C13.9108 33.3935 14.2733 34.3548 14.41 35.36C14.4651 35.6903 14.4885 36.0252 14.48 36.36C14.4742 37.1832 14.3112 37.9978 14 38.76C13.8401 39.1118 13.5505 39.3883 13.1917 39.5319C12.8328 39.6754 12.4324 39.6749 12.074 39.5305C11.7155 39.3861 11.4266 39.1089 11.2675 38.7567C11.1084 38.4045 11.0914 38.0044 11.22 37.64C11.3902 37.207 11.4751 36.7452 11.47 36.28C11.4853 36.117 11.4853 35.953 11.47 35.79C11.3532 34.8753 10.907 34.0345 10.2148 33.4252C9.52267 32.8159 8.63213 32.4799 7.71 32.48C7.18223 32.4924 6.66283 32.6147 6.18493 32.839C5.70703 33.0633 5.28111 33.3847 4.93432 33.7827C4.58753 34.1808 4.32748 34.6467 4.17075 35.1508C4.01403 35.6549 3.96407 36.1862 4.02405 36.7107C4.08403 37.2352 4.25265 37.7414 4.51914 38.1972C4.78563 38.6529 5.14416 39.0481 5.57186 39.3576C5.99956 39.667 6.48706 39.884 7.00326 39.9946C7.51946 40.1052 8.05305 40.107 8.57 40C8.76173 39.9534 8.96077 39.945 9.15575 39.9753C9.35072 40.0056 9.53782 40.074 9.70636 40.1766C9.8749 40.2792 10.0216 40.414 10.138 40.5733C10.2545 40.7326 10.3384 40.9133 10.385 41.105C10.4316 41.2967 10.44 41.4958 10.4097 41.6907C10.3794 41.8857 10.311 42.0728 10.2084 42.2413C10.1058 42.4099 9.97099 42.5566 9.8117 42.673C9.6524 42.7894 9.47173 42.8734 9.28 42.92C8.7544 43.0334 8.21766 43.0871 7.68 43.08Z" fill="#59151D"/>
<path d="M13.87 50.15C12.5251 50.15 11.2104 49.7512 10.0921 49.004C8.97388 48.2568 8.10231 47.1948 7.58763 45.9523C7.07295 44.7097 6.93829 43.3425 7.20067 42.0234C7.46305 40.7043 8.11069 39.4927 9.06168 38.5417C10.0127 37.5907 11.2243 36.9431 12.5434 36.6807C13.8625 36.4183 15.2297 36.553 16.4723 37.0676C17.7148 37.5823 18.7768 38.4539 19.524 39.5721C20.2712 40.6904 20.67 42.0051 20.67 43.35C20.6674 45.1527 19.9501 46.8807 18.6754 48.1554C17.4007 49.4301 15.6727 50.1474 13.87 50.15ZM13.87 39.55C13.1184 39.55 12.3837 39.7729 11.7588 40.1904C11.1339 40.608 10.6469 41.2015 10.3593 41.8958C10.0717 42.5902 9.9964 43.3542 10.143 44.0914C10.2896 44.8285 10.6516 45.5056 11.183 46.037C11.7144 46.5685 12.3915 46.9304 13.1287 47.077C13.8658 47.2236 14.6298 47.1484 15.3242 46.8608C16.0186 46.5731 16.612 46.0861 17.0296 45.4612C17.4471 44.8363 17.67 44.1016 17.67 43.35C17.67 42.851 17.5717 42.3569 17.3808 41.8958C17.1898 41.4348 16.9099 41.0159 16.557 40.663C16.2042 40.3101 15.7852 40.0302 15.3242 39.8393C14.8632 39.6483 14.369 39.55 13.87 39.55ZM28.88 50.15C27.4095 50.148 25.9793 49.6694 24.8038 48.786C23.6283 47.9026 22.7709 46.6619 22.36 45.25C22.3043 45.0856 22.2739 44.9136 22.27 44.74C22.27 44.3422 22.428 43.9607 22.7093 43.6794C22.9907 43.398 23.3722 43.24 23.77 43.24H24.93L25.23 44.35C25.4765 45.2329 26.0338 45.9969 26.7991 46.5013C27.5645 47.0057 28.4864 47.2164 29.3949 47.0946C30.3034 46.9728 31.1373 46.5267 31.7428 45.8386C32.3484 45.1505 32.6848 44.2666 32.69 43.35C32.6906 42.4072 32.3332 41.4994 31.69 40.81C31.3364 40.4118 30.902 40.0935 30.4158 39.8762C29.9295 39.6589 29.4026 39.5477 28.87 39.55H28.63C28.2352 39.5671 27.8463 39.6516 27.48 39.8C27.2962 39.8729 27.0998 39.9089 26.902 39.9058C26.7043 39.9028 26.509 39.8609 26.3275 39.7824C26.146 39.7039 25.9817 39.5905 25.844 39.4485C25.7063 39.3066 25.5979 39.1389 25.525 38.955C25.4521 38.7712 25.4162 38.5748 25.4192 38.377C25.4222 38.1793 25.4642 37.984 25.5426 37.8025C25.6211 37.621 25.7345 37.4567 25.8765 37.319C26.0185 37.1813 26.1862 37.0729 26.37 37C27.0078 36.7408 27.683 36.5855 28.37 36.54C28.5299 36.531 28.6901 36.531 28.85 36.54C29.743 36.54 30.6272 36.7159 31.4523 37.0576C32.2773 37.3994 33.0269 37.9002 33.6583 38.5317C34.2898 39.1631 34.7907 39.9128 35.1324 40.7378C35.4741 41.5628 35.65 42.447 35.65 43.34C35.65 44.233 35.4741 45.1172 35.1324 45.9423C34.7907 46.7673 34.2898 47.5169 33.6583 48.1483C33.0269 48.7798 32.2773 49.2807 31.4523 49.6224C30.6272 49.9641 29.743 50.14 28.85 50.14L28.88 50.15Z" fill="#59151D"/>
<path d="M20.93 58.1C19.5851 58.1 18.2704 57.7012 17.1521 56.954C16.0339 56.2068 15.1623 55.1448 14.6476 53.9023C14.133 52.6597 13.9983 51.2925 14.2607 49.9734C14.5231 48.6543 15.1707 47.4427 16.1217 46.4917C17.0727 45.5407 18.2843 44.893 19.6034 44.6307C20.9225 44.3683 22.2897 44.5029 23.5323 45.0176C24.7748 45.5323 25.8368 46.4039 26.584 47.5221C27.3312 48.6404 27.73 49.9551 27.73 51.3C27.7274 53.1027 27.0101 54.8307 25.7354 56.1054C24.4607 57.3801 22.7327 58.0974 20.93 58.1ZM20.93 47.5C20.1784 47.5 19.4438 47.7229 18.8188 48.1404C18.1939 48.558 17.7069 49.1514 17.4193 49.8458C17.1317 50.5402 17.0564 51.3042 17.203 52.0413C17.3497 52.7785 17.7116 53.4556 18.243 53.987C18.7744 54.5185 19.4515 54.8804 20.1887 55.027C20.9258 55.1736 21.6898 55.0984 22.3842 54.8107C23.0786 54.5231 23.672 54.0361 24.0896 53.4112C24.5071 52.7863 24.73 52.0516 24.73 51.3C24.73 50.2922 24.3297 49.3256 23.617 48.613C22.9044 47.9004 21.9378 47.5 20.93 47.5ZM15.63 37.78C14.3973 37.7706 13.1906 37.4249 12.14 36.78C11.8165 36.5657 11.5886 36.2344 11.5042 35.8557C11.4198 35.477 11.4855 35.0802 11.6874 34.7489C11.8893 34.4175 12.2118 34.1773 12.5871 34.0787C12.9624 33.9801 13.3613 34.0307 13.7 34.22C14.1439 34.4823 14.6364 34.6514 15.1477 34.7173C15.6591 34.7831 16.1784 34.7442 16.6742 34.603C17.17 34.4617 17.6319 34.221 18.0317 33.8956C18.4316 33.5702 18.761 33.1668 19 32.71C19.3991 31.9294 19.5176 31.0352 19.3355 30.1776C19.1534 29.32 18.6819 28.5511 18 28L17.75 27.82C17.2578 27.4916 16.6958 27.2824 16.1086 27.2089C15.5214 27.1355 14.9252 27.1998 14.3673 27.3968C13.8093 27.5938 13.3048 27.918 12.8939 28.3439C12.483 28.7697 12.177 29.2854 12 29.85C11.8842 30.2222 11.8269 30.6102 11.83 31C11.8152 31.163 11.8152 31.327 11.83 31.49C11.9047 31.6959 11.9335 31.9157 11.9142 32.1339C11.8949 32.3521 11.828 32.5634 11.7183 32.753C11.6086 32.9426 11.4587 33.1059 11.2791 33.2314C11.0996 33.3568 10.8947 33.4414 10.6789 33.4792C10.4632 33.5171 10.2418 33.5072 10.0302 33.4502C9.8187 33.3933 9.62221 33.2908 9.45456 33.1498C9.28691 33.0088 9.15218 32.8328 9.05983 32.6341C8.96748 32.4355 8.91975 32.2191 8.92001 32C8.85913 31.6702 8.82901 31.3354 8.83001 31C8.83591 30.3218 8.94034 29.6481 9.14001 29C9.4596 27.9465 10.0291 26.9859 10.8 26.2C11.9666 25.0155 13.5272 24.3002 15.186 24.1896C16.8448 24.0791 18.4865 24.5809 19.8 25.6L20.38 26.11C21.3532 27.0515 22.0227 28.2625 22.3024 29.5874C22.5821 30.9124 22.4593 32.2906 21.9497 33.5452C21.4402 34.7998 20.5671 35.8733 19.4428 36.6279C18.3184 37.3826 16.9941 37.7838 15.64 37.78H15.63Z" fill="#59151D"/>
<path d="M6.8 32.48C5.45509 32.48 4.14038 32.0812 3.02213 31.334C1.90387 30.5868 1.0323 29.5248 0.517622 28.2822C0.00294632 27.0397 -0.131716 25.6725 0.130663 24.3534C0.393043 23.0343 1.04068 21.8227 1.99168 20.8717C2.94267 19.9207 4.15432 19.273 5.47339 19.0107C6.79246 18.7483 8.15971 18.8829 9.40225 19.3976C10.6448 19.9123 11.7068 20.7839 12.454 21.9021C13.2012 23.0204 13.6 24.3351 13.6 25.68C13.6006 26.3587 13.496 27.0333 13.29 27.68C13.1982 27.9733 13.0185 28.2312 12.7752 28.419C12.532 28.6068 12.237 28.7154 11.93 28.73C12.0616 29.0073 12.1044 29.3184 12.0525 29.6209C12.0006 29.9234 11.8565 30.2025 11.64 30.42C11.0136 31.0717 10.262 31.5901 9.43028 31.944C8.59857 32.298 7.70391 32.4803 6.8 32.48ZM6.8 21.88C5.79218 21.88 4.82564 22.2804 4.113 22.993C3.40036 23.7056 3 24.6722 3 25.68C3 26.6878 3.40036 27.6544 4.113 28.367C4.82564 29.0796 5.79218 29.48 6.8 29.48C7.30362 29.4816 7.80236 29.3814 8.26632 29.1855C8.73028 28.9896 9.1499 28.702 9.5 28.34C9.76502 28.0712 10.1228 27.9138 10.5 27.9C10.3415 27.5581 10.3165 27.1693 10.43 26.81C10.5424 26.4439 10.5997 26.063 10.6 25.68C10.6 24.6722 10.1996 23.7056 9.48701 22.993C8.77437 22.2804 7.80783 21.88 6.8 21.88ZM20.93 16C20.7982 15.9974 20.6725 15.9439 20.5793 15.8507C20.4861 15.7575 20.4326 15.6318 20.43 15.5V10.85C20.4255 10.1714 20.6103 9.50499 20.9636 8.92559C21.3169 8.34619 21.8247 7.87676 22.43 7.57C22.8929 7.36075 23.2865 7.0238 23.5646 6.59869C23.8427 6.17358 23.9937 5.67795 24 5.17V0.5C24 0.367392 24.0527 0.240215 24.1465 0.146447C24.2402 0.0526784 24.3674 0 24.5 0C24.6326 0 24.7598 0.0526784 24.8536 0.146447C24.9473 0.240215 25 0.367392 25 0.5V5.17C25.0045 5.8486 24.8197 6.51501 24.4664 7.09441C24.1131 7.67381 23.6053 8.14324 23 8.45C22.5483 8.66787 22.1671 9.00854 21.9001 9.43299C21.633 9.85744 21.4909 10.3485 21.49 10.85V15.52C21.4877 15.5893 21.4711 15.6574 21.441 15.72C21.411 15.7825 21.3683 15.8381 21.3157 15.8833C21.263 15.9284 21.2015 15.9621 21.1351 15.9822C21.0687 16.0023 20.9989 16.0084 20.93 16Z" fill="#59151D"/>
</g>
<defs>
<clipPath id="clip0_1_2">
<rect width="41.87" height="58.1" fill="white"/>
</clipPath>
</defs>
</svg>
